<?xml version="1.0" ?><svg id="Layer_1" style="enable-background:new 0 0 32 32;" version="1.1" viewBox="0 0 32 32" xml:space="preserve" xmlns="http://www.w3.org/2000/svg" xmlns:xlink="http://www.w3.org/1999/xlink"><g><path d="M15.64,25.48c0.12,0.04,0.24,0.06,0.36,0.06c0.12,0,0.24-0.01,0.35-0.06c0.1-0.03,9.54-3.37,9.54-13.6   C25.89,6.44,21.45,2,16,2c-5.45,0-9.89,4.44-9.89,9.88C6.11,22.11,15.55,25.45,15.64,25.48z M16,6.51c2.94,0,5.33,2.39,5.33,5.33   c0,2.93-2.39,5.33-5.33,5.33c-2.94,0-5.33-2.4-5.33-5.33C10.67,8.9,13.06,6.51,16,6.51z"/><path d="M21.82,23.82c-0.51-0.33-1.2-0.18-1.53,0.33c-0.33,0.51-0.18,1.2,0.33,1.53c0.41,0.26,0.54,0.48,0.54,0.55   c0,0.4-1.78,1.56-5.17,1.56c-3.39,0-5.16-1.16-5.16-1.56c0-0.07,0.13-0.29,0.54-0.55c0.51-0.33,0.66-1.01,0.33-1.53   c-0.33-0.51-1.01-0.66-1.53-0.33c-1.29,0.83-1.56,1.77-1.56,2.41C8.62,28.7,12.33,30,16,30c3.67,0,7.38-1.3,7.38-3.77   C23.38,25.59,23.11,24.64,21.82,23.82z"/></g></svg>